<?xml version="1.0" encoding="UTF-8"?>
<svg width="800" height="400" version="1.1" viewBox="0 0 800 400" xmlns="http://www.w3.org/2000/svg">
 <rect width="800" height="400" fill="#f0f0f0"/>
 <g fill="#999">
  <path d="m372.65 184.67h54.704v8.2056h-45.437v25.678h43.496v8.2056h-43.496v28.72h46.407v8.2056h-55.674z"/>
  <path d="m455.04 184.67h9.2674l28.72 43.496 28.72-43.496h9.2674v79.015h-9.2674v-64.681l-28.72 42.526-28.72-42.526v64.681h-9.2674z"/>
  <path d="m562.04 184.67h9.2674v79.015h-9.2674z"/>
  <path d="m603.6 184.67h9.2674l28.72 43.496 28.72-43.496h9.2674v79.015h-9.2674v-64.681l-28.72 42.526-28.72-42.526v64.681h-9.2674z"/>
  <path d="m710.6 184.67h9.2674v79.015h-9.2674z"/>
 </g>
</svg> 